<svg xmlns="http://www.w3.org/2000/svg" width="115.467" height="115.467" viewBox="0 0 115.467 115.467">
    <defs>
        <style>
            .cls-1{fill:#575757}
        </style>
    </defs>
    <g id="Source_code" data-name="Source code" transform="translate(-2 -2)">
        <path id="Path_2101" d="M88.827 56.489V18H8v59.658a1.924 1.924 0 0 0 1.924 1.924h55.809a23.118 23.118 0 0 1 23.094-23.093zm-55.809-9.622h23.093v3.849H33.018zm-7.7-3.849v-3.849h11.549v3.849zM45.421 27.3a1.925 1.925 0 1 1 2.136-3.2l5.773 3.849a1.924 1.924 0 0 1 0 3.2L47.557 35a1.925 1.925 0 1 1-2.136-3.2l3.379-2.253zm-.856 15.719h-3.849v-3.85h3.849zm-9.525-8.307l3.849-11.547a1.927 1.927 0 1 1 3.656 1.216L38.7 35.928a1.927 1.927 0 1 1-3.656-1.216zm-15.494 39.1a1.924 1.924 0 0 1-3.849 0v-46.19a1.924 1.924 0 0 1 3.849 0zM23.4 29.547a1.925 1.925 0 0 1 .857-1.6l5.768-3.847a1.925 1.925 0 1 1 2.136 3.2l-3.377 2.248 3.372 2.248A1.925 1.925 0 1 1 30.019 35l-5.773-3.849a1.924 1.924 0 0 1-.851-1.6zm13.467 36.564H25.32v-3.849h11.547zm0-7.7h-3.849v-3.847h3.849zm7.7 7.7h-3.851v-3.849h3.849zm19.244-7.7H40.716v-3.847h23.093zm0-11.547H59.96v-3.846h3.849zm3.849-3.849h17.32v3.849H67.658zm0 7.7h7.7v3.849h-7.7z" class="cls-1" data-name="Path 2101" transform="translate(5.547 14.791)"/>
        <path id="Path_2102" d="M59.244 40a19.244 19.244 0 1 0 19.245 19.244A19.244 19.244 0 0 0 59.244 40zm-6.337 23.657a1.924 1.924 0 1 1-2.721 2.721l-5.773-5.774a1.924 1.924 0 0 1 0-2.721l5.773-5.773a1.924 1.924 0 1 1 2.721 2.721l-4.413 4.413zm6.3 5.581a1.924 1.924 0 0 1-1.886 1.553 1.825 1.825 0 0 1-.385-.038 1.924 1.924 0 0 1-1.5-2.271l3.849-19.244a1.924 1.924 0 1 1 3.772.754zm9.1-2.865a1.924 1.924 0 1 1-2.721-2.721l4.413-4.407-4.413-4.413A1.924 1.924 0 1 1 68.3 52.11l5.773 5.774a1.924 1.924 0 0 1 0 2.721z" class="cls-1" data-name="Path 2102" transform="translate(35.129 35.129)"/>
        <path id="Path_2103" d="M86.9 12H9.924A1.924 1.924 0 0 0 8 13.924V19.7h80.827v-5.776A1.924 1.924 0 0 0 86.9 12zm-71.2 5.773h-3.851v-3.849H15.7zm7.7 0h-3.853v-3.849H23.4zm7.7 0h-3.856v-3.849h3.849z" class="cls-1" data-name="Path 2103" transform="translate(5.547 9.244)"/>
        <path id="Path_2104" d="M9.7 69.4H2V54h7.7v3.849H5.849v7.7H9.7z" class="cls-1" data-name="Path 2104" transform="translate(0 48.071)"/>
        <path id="Path_2105" d="M23.7 69.4H16v-3.853h3.849v-7.7H16V54h7.7z" class="cls-1" data-name="Path 2105" transform="translate(12.942 48.071)"/>
        <path id="Path_2106" d="M6 57h3.849v3.849H6z" class="cls-1" data-name="Path 2106" transform="translate(3.698 50.844)"/>
        <path id="Path_2107" d="M10 57h3.849v3.849H10z" class="cls-1" data-name="Path 2107" transform="translate(7.396 50.844)"/>
        <path id="Path_2108" d="M14 57h3.849v3.849H14z" class="cls-1" data-name="Path 2108" transform="translate(11.093 50.844)"/>
        <path id="Path_2109" d="M60 2h3.849v11.547H60z" class="cls-1" data-name="Path 2109" transform="translate(53.618)"/>
        <path id="Path_2110" d="M59.773 13.547h-1.924A3.849 3.849 0 0 1 54 9.7V5.849A3.849 3.849 0 0 1 57.849 2h1.924a3.849 3.849 0 0 1 3.849 3.849V9.7a3.849 3.849 0 0 1-3.849 3.847zm-1.924-7.7V9.7h1.924V5.849z" class="cls-1" data-name="Path 2110" transform="translate(48.071)"/>
        <path id="Path_2111" d="M49.773 13.547h-1.924A3.849 3.849 0 0 1 44 9.7V5.849A3.849 3.849 0 0 1 47.849 2h1.924a3.849 3.849 0 0 1 3.849 3.849V9.7a3.849 3.849 0 0 1-3.849 3.847zm-1.924-7.7V9.7h1.924V5.849z" class="cls-1" data-name="Path 2111" transform="translate(38.827)"/>
        <path id="Path_2112" d="M50 2h3.849v11.547H50z" class="cls-1" data-name="Path 2112" transform="translate(44.373)"/>
    </g>
</svg>
